<svg width="20" height="20" viewBox="0 0 20 20" fill="none" xmlns="http://www.w3.org/2000/svg">
<g clip-path="url(#clip0_675_1323)">
<path d="M18.3327 10.0003V15.0003C18.3327 16.8413 16.8403 18.3337 14.9993 18.3337H4.99935C3.1584 18.3337 1.66602 16.8413 1.66602 15.0003V5.00033C1.66602 3.15938 3.1584 1.66699 4.99935 1.66699H9.99935M13.0713 3.35262C13.0713 3.35262 13.0713 4.54453 14.2632 5.73644C15.4551 6.92836 16.6471 6.92836 16.6471 6.92836M7.62824 13.325L10.1313 12.9674C10.4923 12.9158 10.8269 12.7485 11.0848 12.4906L17.839 5.73644C18.4973 5.07817 18.4973 4.01089 17.839 3.35261L16.6471 2.1607C15.9888 1.50242 14.9215 1.50242 14.2632 2.1607L7.50905 8.91488C7.25116 9.17277 7.08386 9.50736 7.03229 9.86841L6.67471 12.3714C6.59525 12.9277 7.07202 13.4044 7.62824 13.325Z" stroke="#606060" stroke-width="1.5" stroke-linecap="round"/>
</g>
<defs>
<clipPath id="clip0_675_1323">
<rect width="20" height="20" fill="white"/>
</clipPath>
</defs>
</svg>
