<svg width="20" height="20" viewBox="0 0 20 20" fill="none" xmlns="http://www.w3.org/2000/svg">
<g clip-path="url(#clip0_675_1327)">
<g clip-path="url(#clip1_675_1327)">
<path d="M9.55469 5.55458C9.55469 5.40724 9.61322 5.26593 9.71741 5.16174C9.82159 5.05756 9.9629 4.99902 10.1102 4.99902H14.5547C14.702 4.99902 14.8433 5.05756 14.9475 5.16174C15.0517 5.26593 15.1102 5.40724 15.1102 5.55458C15.1102 5.70192 15.0517 5.84323 14.9475 5.94742C14.8433 6.0516 14.702 6.11013 14.5547 6.11013H10.1102C9.9629 6.11013 9.82159 6.0516 9.71741 5.94742C9.61322 5.84323 9.55469 5.70192 9.55469 5.55458ZM10.1102 7.22125C9.9629 7.22125 9.82159 7.27978 9.71741 7.38396C9.61322 7.48815 9.55469 7.62946 9.55469 7.7768C9.55469 7.92414 9.61322 8.06545 9.71741 8.16964C9.82159 8.27383 9.9629 8.33236 10.1102 8.33236H14.5547C14.702 8.33236 14.8433 8.27383 14.9475 8.16964C15.0517 8.06545 15.1102 7.92414 15.1102 7.7768C15.1102 7.62946 15.0517 7.48815 14.9475 7.38396C14.8433 7.27978 14.702 7.22125 14.5547 7.22125H10.1102ZM9.55469 12.7768C9.55469 12.6295 9.61322 12.4882 9.71741 12.384C9.82159 12.2798 9.9629 12.2212 10.1102 12.2212H14.5547C14.702 12.2212 14.8433 12.2798 14.9475 12.384C15.0517 12.4882 15.1102 12.6295 15.1102 12.7768C15.1102 12.9241 15.0517 13.0655 14.9475 13.1696C14.8433 13.2738 14.702 13.3324 14.5547 13.3324H10.1102C9.9629 13.3324 9.82159 13.2738 9.71741 13.1696C9.61322 13.0655 9.55469 12.9241 9.55469 12.7768ZM10.1102 14.4435C9.9629 14.4435 9.82159 14.502 9.71741 14.6062C9.61322 14.7104 9.55469 14.8517 9.55469 14.999C9.55469 15.1464 9.61322 15.2877 9.71741 15.3919C9.82159 15.496 9.9629 15.5546 10.1102 15.5546H14.5547C14.702 15.5546 14.8433 15.496 14.9475 15.3919C15.0517 15.2877 15.1102 15.1464 15.1102 14.999C15.1102 14.8517 15.0517 14.7104 14.9475 14.6062C14.8433 14.502 14.702 14.4435 14.5547 14.4435H10.1102Z" fill="#606060"/>
<path fill-rule="evenodd" clip-rule="evenodd" d="M4 12.2186C4 12.0713 4.05853 11.93 4.16272 11.8258C4.26691 11.7216 4.40821 11.6631 4.55556 11.6631H7.33333C7.48068 11.6631 7.62198 11.7216 7.72617 11.8258C7.83036 11.93 7.88889 12.0713 7.88889 12.2186V14.9964C7.88889 15.1438 7.83036 15.2851 7.72617 15.3893C7.62198 15.4934 7.48068 15.552 7.33333 15.552H4.55556C4.40821 15.552 4.26691 15.4934 4.16272 15.3893C4.05853 15.2851 4 15.1438 4 14.9964V12.2186ZM5.11111 12.7742V14.4409H6.77778V12.7742H5.11111Z" fill="#606060"/>
<path d="M8.2807 5.94444C8.3819 5.83966 8.4379 5.69932 8.43663 5.55366C8.43536 5.40799 8.37694 5.26865 8.27393 5.16565C8.17093 5.06264 8.03159 5.00422 7.88592 5.00295C7.74026 5.00168 7.59992 5.05768 7.49514 5.15888L5.6657 6.98833L4.94737 6.26999C4.84259 6.16879 4.70225 6.1128 4.55659 6.11406C4.41092 6.11533 4.27158 6.17375 4.16858 6.27676C4.06557 6.37976 4.00715 6.5191 4.00588 6.66477C4.00461 6.81043 4.06061 6.95077 4.16181 7.05555L5.6657 8.55944L8.2807 5.94444Z" fill="#606060"/>
<path fill-rule="evenodd" clip-rule="evenodd" d="M2.49951 0.27832C1.91002 0.27832 1.345 0.512447 0.928163 0.929194C0.511327 1.34594 0.277289 1.91117 0.277289 2.50054V17.499C0.277289 18.0884 0.511327 18.6536 0.928163 19.0704C1.345 19.4871 1.91002 19.7212 2.49951 19.7212H17.4993C18.0888 19.7212 18.6538 19.4871 19.0706 19.0704C19.4875 18.6536 19.7215 18.0884 19.7215 17.499V2.50054C19.7215 1.91117 19.4875 1.34594 19.0706 0.929194C18.6538 0.512447 18.0888 0.27832 17.4993 0.27832H2.49951ZM1.3884 2.50054C1.3884 2.20586 1.50542 1.92324 1.71384 1.71487C1.92226 1.50649 2.20476 1.38943 2.49951 1.38943H17.4993C17.794 1.38943 18.0765 1.50649 18.2849 1.71487C18.4934 1.92324 18.6104 2.20586 18.6104 2.50054V17.499C18.6104 17.7937 18.4934 18.0763 18.2849 18.2847C18.0765 18.4931 17.794 18.6101 17.4993 18.6101H2.49951C2.20476 18.6101 1.92226 18.4931 1.71384 18.2847C1.50542 18.0763 1.3884 17.7937 1.3884 17.499V2.50054Z" fill="#606060" stroke="#606060" stroke-width="0.5"/>
</g>
</g>
<defs>
<clipPath id="clip0_675_1327">
<rect width="20" height="20" fill="white"/>
</clipPath>
<clipPath id="clip1_675_1327">
<rect width="20" height="20" fill="white"/>
</clipPath>
</defs>
</svg>
