<svg width="20" height="20" viewBox="0 0 20 20" fill="none" xmlns="http://www.w3.org/2000/svg">
<g clip-path="url(#clip0_675_1340)">
<path d="M10.0002 9.44416C10.8201 9.44526 11.622 9.20313 12.3043 8.7484C12.9865 8.29367 13.5186 7.64678 13.8331 6.88958C14.1477 6.13238 14.2305 5.2989 14.0713 4.49459C13.912 3.69028 13.5177 2.95129 12.9383 2.37112C12.3589 1.79095 11.6205 1.39568 10.8164 1.23532C10.0123 1.07495 9.17867 1.1567 8.42105 1.47022C7.66343 1.78374 7.01582 2.31494 6.56018 2.99661C6.10454 3.67828 5.86133 4.47979 5.86133 5.29972C5.86133 6.39793 6.29721 7.45124 7.07324 8.22832C7.84928 9.00539 8.902 9.44269 10.0002 9.44416ZM10.0002 2.26083C10.6006 2.25973 11.1879 2.43684 11.6875 2.76972C12.1872 3.1026 12.5769 3.57629 12.8071 4.13079C13.0374 4.68528 13.098 5.29564 12.9811 5.88457C12.8642 6.47349 12.5752 7.01449 12.1507 7.43905C11.7261 7.8636 11.1851 8.15261 10.5962 8.26947C10.0073 8.38634 9.39689 8.3258 8.8424 8.09553C8.2879 7.86525 7.81422 7.4756 7.48133 6.97592C7.14845 6.47624 6.97134 5.88901 6.97244 5.28861C6.97391 4.48604 7.29338 3.71677 7.86088 3.14927C8.42838 2.58176 9.19765 2.2623 10.0002 2.26083Z" fill="#606060" stroke="#606060" stroke-width="0.5" stroke-linejoin="round"/>
<path d="M3.33412 17.7169V14.3169C4.19182 13.4168 5.22748 12.7049 6.37522 12.2267C7.52295 11.7485 8.75765 11.5143 10.0008 11.5392C11.7023 11.516 13.377 11.964 14.8397 12.8336L15.5897 11.9947C13.9173 10.9414 11.9771 10.3917 10.0008 10.4114C8.55479 10.3746 7.11847 10.6572 5.79423 11.2391C4.46999 11.821 3.29044 12.688 2.33967 13.7781C2.26556 13.8735 2.2246 13.9906 2.22301 14.1114V17.7169C2.21553 18.0196 2.32825 18.3128 2.5365 18.5325C2.74474 18.7522 3.03154 18.8804 3.33412 18.8892H10.2174L9.16189 17.7781L3.33412 17.7169Z" fill="#606060" stroke="#606060" stroke-width="0.5" stroke-linejoin="round"/>
<path d="M16.666 17.7168V17.7779H14.916L13.916 18.889H16.666C16.9647 18.8803 17.2481 18.7551 17.4557 18.5402C17.6634 18.3254 17.7787 18.0378 17.7771 17.739V14.5557L16.666 15.7946V17.7168Z" fill="#606060" stroke="#606060" stroke-width="0.5" stroke-linejoin="round"/>
<path d="M19.3116 10.3447C19.2017 10.2469 19.0576 10.1967 18.9107 10.205C18.7639 10.2133 18.6263 10.2795 18.5282 10.3891L12.0727 17.6114L9.18379 14.5058C9.13637 14.4504 9.07849 14.4048 9.01346 14.3717C8.94843 14.3386 8.87752 14.3187 8.80478 14.313C8.73204 14.3073 8.65889 14.316 8.58952 14.3386C8.52014 14.3612 8.4559 14.3973 8.40045 14.4447C8.34614 14.4941 8.30216 14.5538 8.27106 14.6203C8.23996 14.6868 8.22234 14.7588 8.21925 14.8322C8.21615 14.9055 8.22762 14.9788 8.253 15.0477C8.27838 15.1166 8.31717 15.1798 8.36712 15.2336L12.0838 19.2336L19.356 11.1114C19.4487 11.0024 19.4959 10.8619 19.4876 10.7191C19.4793 10.5763 19.4163 10.4422 19.3116 10.3447Z" fill="#606060" stroke="#606060" stroke-width="0.5" stroke-linejoin="round"/>
</g>
<defs>
<clipPath id="clip0_675_1340">
<rect width="20" height="20" fill="white"/>
</clipPath>
</defs>
</svg>
