<svg width="96" height="96" viewBox="0 0 96 96" fill="none" xmlns="http://www.w3.org/2000/svg">
<path d="M40 30C40 29.4696 40.2107 28.9609 40.5858 28.5858C40.9609 28.2107 41.4696 28 42 28H58C58.5304 28 59.0391 28.2107 59.4142 28.5858C59.7893 28.9609 60 29.4696 60 30C60 30.5304 59.7893 31.0391 59.4142 31.4142C59.0391 31.7893 58.5304 32 58 32H42C41.4696 32 40.9609 31.7893 40.5858 31.4142C40.2107 31.0391 40 30.5304 40 30ZM42 36C41.4696 36 40.9609 36.2107 40.5858 36.5858C40.2107 36.9609 40 37.4696 40 38C40 38.5304 40.2107 39.0391 40.5858 39.4142C40.9609 39.7893 41.4696 40 42 40H58C58.5304 40 59.0391 39.7893 59.4142 39.4142C59.7893 39.0391 60 38.5304 60 38C60 37.4696 59.7893 36.9609 59.4142 36.5858C59.0391 36.2107 58.5304 36 58 36H42ZM40 56C40 55.4696 40.2107 54.9609 40.5858 54.5858C40.9609 54.2107 41.4696 54 42 54H58C58.5304 54 59.0391 54.2107 59.4142 54.5858C59.7893 54.9609 60 55.4696 60 56C60 56.5304 59.7893 57.0391 59.4142 57.4142C59.0391 57.7893 58.5304 58 58 58H42C41.4696 58 40.9609 57.7893 40.5858 57.4142C40.2107 57.0391 40 56.5304 40 56ZM42 62C41.4696 62 40.9609 62.2107 40.5858 62.5858C40.2107 62.9609 40 63.4696 40 64C40 64.5304 40.2107 65.0391 40.5858 65.4142C40.9609 65.7893 41.4696 66 42 66H58C58.5304 66 59.0391 65.7893 59.4142 65.4142C59.7893 65.0391 60 64.5304 60 64C60 63.4696 59.7893 62.9609 59.4142 62.5858C59.0391 62.2107 58.5304 62 58 62H42Z" fill="#CF0000"/>
<path fill-rule="evenodd" clip-rule="evenodd" d="M20 54C20 53.4696 20.2107 52.9609 20.5858 52.5858C20.9609 52.2107 21.4696 52 22 52H32C32.5304 52 33.0391 52.2107 33.4142 52.5858C33.7893 52.9609 34 53.4696 34 54V64C34 64.5304 33.7893 65.0391 33.4142 65.4142C33.0391 65.7893 32.5304 66 32 66H22C21.4696 66 20.9609 65.7893 20.5858 65.4142C20.2107 65.0391 20 64.5304 20 64V54ZM24 56V62H30V56H24Z" fill="#CF0000"/>
<path d="M35.4138 31.4148C35.7782 31.0376 35.9797 30.5324 35.9752 30.008C35.9706 29.4836 35.7603 28.982 35.3895 28.6112C35.0187 28.2404 34.517 28.03 33.9926 28.0255C33.4682 28.0209 32.963 28.2225 32.5858 28.5868L25.9998 35.1728L23.4138 32.5868C23.0366 32.2225 22.5314 32.0209 22.007 32.0255C21.4826 32.03 20.981 32.2404 20.6102 32.6112C20.2394 32.982 20.029 33.4836 20.0245 34.008C20.0199 34.5324 20.2215 35.0376 20.5858 35.4148L25.9998 40.8288L35.4138 31.4148Z" fill="#CF0000"/>
<path fill-rule="evenodd" clip-rule="evenodd" d="M20 12C17.8783 12 15.8434 12.8429 14.3431 14.3431C12.8429 15.8434 12 17.8783 12 20V76C12 78.1217 12.8429 80.1566 14.3431 81.6569C15.8434 83.1571 17.8783 84 20 84H60C62.1217 84 64.1566 83.1571 65.6569 81.6569C67.1571 80.1566 68 78.1217 68 76V20C68 17.8783 67.1571 15.8434 65.6569 14.3431C64.1566 12.8429 62.1217 12 60 12H20ZM16 20C16 18.9391 16.4214 17.9217 17.1716 17.1716C17.9217 16.4214 18.9391 16 20 16H60C61.0609 16 62.0783 16.4214 62.8284 17.1716C63.5786 17.9217 64 18.9391 64 20V76C64 77.0609 63.5786 78.0783 62.8284 78.8284C62.0783 79.5786 61.0609 80 60 80H20C18.9391 80 17.9217 79.5786 17.1716 78.8284C16.4214 78.0783 16 77.0609 16 76V20ZM72 32C72 30.4087 72.6321 28.8826 73.7574 27.7574C74.8826 26.6321 76.4087 26 78 26C79.5913 26 81.1174 26.6321 82.2426 27.7574C83.3679 28.8826 84 30.4087 84 32V72.606L78 81.606L72 72.606V32ZM78 30C77.4696 30 76.9609 30.2107 76.5858 30.5858C76.2107 30.9609 76 31.4696 76 32V36H80V32C80 31.4696 79.7893 30.9609 79.4142 30.5858C79.0391 30.2107 78.5304 30 78 30ZM78 74.394L76 71.394V40H80V71.394L78 74.394Z" fill="#CF0000"/>
</svg>
