<svg width="20" height="20" viewBox="0 0 20 20" fill="none" xmlns="http://www.w3.org/2000/svg">
<g clip-path="url(#clip0_605_3804)">
<path d="M10.0002 9.44514C10.8201 9.44624 11.622 9.2041 12.3043 8.74937C12.9865 8.29465 13.5186 7.64776 13.8331 6.89056C14.1477 6.13336 14.2305 5.29987 14.0713 4.49556C13.912 3.69125 13.5177 2.95226 12.9383 2.3721C12.3589 1.79193 11.6205 1.39666 10.8164 1.23629C10.0123 1.07593 9.17867 1.15768 8.42105 1.4712C7.66343 1.78472 7.01582 2.31592 6.56018 2.99759C6.10454 3.67926 5.86133 4.48076 5.86133 5.30069C5.86133 6.39891 6.29721 7.45222 7.07324 8.2293C7.84928 9.00637 8.902 9.44367 10.0002 9.44514ZM10.0002 2.2618C10.6006 2.26071 11.1879 2.43781 11.6875 2.7707C12.1872 3.10358 12.5769 3.57727 12.8071 4.13176C13.0374 4.68626 13.098 5.29662 12.9811 5.88554C12.8642 6.47447 12.5752 7.01547 12.1507 7.44002C11.7261 7.86458 11.1851 8.15359 10.5962 8.27045C10.0073 8.38732 9.39689 8.32678 8.8424 8.0965C8.2879 7.86623 7.81422 7.47658 7.48133 6.9769C7.14845 6.47722 6.97134 5.88999 6.97244 5.28958C6.97391 4.48702 7.29338 3.71774 7.86088 3.15024C8.42838 2.58274 9.19765 2.26327 10.0002 2.2618Z" fill="#606060" stroke="#606060" stroke-width="0.5" stroke-linejoin="round"/>
<path d="M3.33314 17.7169V14.3169C4.19085 13.4168 5.2265 12.7049 6.37424 12.2267C7.52198 11.7485 8.75667 11.5143 9.99981 11.5392C11.7013 11.516 13.376 11.964 14.8387 12.8336L15.5887 11.9947C13.9164 10.9414 11.9761 10.3917 9.99981 10.4114C8.55381 10.3746 7.11749 10.6572 5.79325 11.2391C4.46901 11.821 3.28946 12.688 2.3387 13.7781C2.26459 13.8735 2.22363 13.9906 2.22203 14.1114V17.7169C2.21456 18.0196 2.32728 18.3128 2.53552 18.5325C2.74376 18.7522 3.03056 18.8804 3.33314 18.8892H10.2165L9.16092 17.7781L3.33314 17.7169Z" fill="#606060" stroke="#606060" stroke-width="0.5" stroke-linejoin="round"/>
<path d="M16.667 17.7158V17.7769H14.917L13.917 18.888H16.667C16.9657 18.8793 17.2491 18.7542 17.4567 18.5393C17.6643 18.3244 17.7797 18.0368 17.7781 17.738V14.5547L16.667 15.7936V17.7158Z" fill="#606060" stroke="#606060" stroke-width="0.5" stroke-linejoin="round"/>
<path d="M19.3116 10.3437C19.2017 10.2459 19.0576 10.1957 18.9107 10.204C18.7639 10.2123 18.6263 10.2786 18.5282 10.3882L12.0727 17.6104L9.18379 14.5048C9.13637 14.4494 9.07849 14.4038 9.01346 14.3707C8.94843 14.3376 8.87752 14.3177 8.80478 14.312C8.73204 14.3063 8.65889 14.3151 8.58952 14.3377C8.52014 14.3602 8.4559 14.3963 8.40045 14.4437C8.34614 14.4931 8.30216 14.5528 8.27106 14.6193C8.23996 14.6858 8.22234 14.7578 8.21925 14.8312C8.21615 14.9046 8.22762 14.9778 8.253 15.0467C8.27838 15.1156 8.31717 15.1788 8.36712 15.2326L12.0838 19.2326L19.356 11.1104C19.4487 11.0014 19.4959 10.8609 19.4876 10.7181C19.4793 10.5753 19.4163 10.4412 19.3116 10.3437Z" fill="#606060" stroke="#606060" stroke-width="0.5" stroke-linejoin="round"/>
</g>
<defs>
<clipPath id="clip0_605_3804">
<rect width="20" height="20" fill="white"/>
</clipPath>
</defs>
</svg>
