<svg width="52" height="51" viewBox="0 0 52 51" fill="none" xmlns="http://www.w3.org/2000/svg">
<path fill-rule="evenodd" clip-rule="evenodd" d="M24.5855 0.0622798C23.0641 0.303743 21.6243 0.842222 20.3102 1.66116C19.1456 2.38685 17.6273 3.91541 16.9065 5.08792C14.8254 8.47289 14.6707 12.547 16.4895 16.0662C16.6879 16.45 17.3752 17.4764 18.0168 18.347C19.3877 20.2071 19.923 21.0849 20.0625 21.7015C20.121 21.9605 20.165 23.6191 20.1665 25.6227C20.1681 27.9639 20.2047 29.1661 20.2788 29.313C20.4366 29.6257 22.3474 31.5626 22.6653 31.732C23.0584 31.9416 29.1672 31.9416 29.5602 31.732C29.8781 31.5626 31.789 29.6257 31.9468 29.313C32.021 29.1658 32.0567 27.9677 32.0567 25.6196C32.0567 21.7773 32.0892 21.5026 32.6543 20.5638C32.8375 20.2594 33.529 19.2715 34.1907 18.3685C35.5107 16.5675 35.9495 15.8004 36.392 14.5204C36.8484 13.2002 36.9617 12.4402 36.949 10.7803C36.9394 9.52162 36.8978 9.13275 36.6867 8.32937C36.1507 6.28945 35.2094 4.61487 33.803 3.1988C31.7962 1.17853 29.2962 0.0920014 26.4595 0.00752423C25.7512 -0.0135203 24.908 0.0111147 24.5855 0.0622798ZM11.3196 1.95788C10.9871 2.22128 10.8883 2.72964 11.0926 3.12729C11.3183 3.56673 13.1775 4.64649 13.7085 4.64649C14.2594 4.64649 14.6213 4.27287 14.6213 3.70407C14.6213 3.17866 14.3986 2.95605 13.1797 2.26357C12.1763 1.69348 11.7434 1.62236 11.3196 1.95788ZM38.9024 2.35144C38.3376 2.67987 37.8159 3.02776 37.743 3.1244C37.6702 3.22095 37.6092 3.48465 37.6075 3.71036C37.6031 4.26978 37.9673 4.64649 38.5122 4.64649C39.0166 4.64649 40.8137 3.63835 41.0903 3.2003C41.4919 2.56408 41.0475 1.75412 40.2967 1.75412C40.0279 1.75412 39.6533 1.91459 38.9024 2.35144ZM24.3296 2.1403C20.9767 2.87865 18.3844 5.35522 17.4784 8.68583C17.1684 9.82492 17.1672 12.0261 17.4758 13.174C17.7947 14.3603 18.4569 15.617 19.4987 17.0139C21.2328 19.3385 21.8911 20.4928 22.0137 21.4229L22.0767 21.901H23.5994H25.1221V17.6431V13.3853L24.1883 12.4284C23.6746 11.9019 23.224 11.3495 23.1868 11.2006C22.9984 10.4447 23.6473 9.78852 24.396 9.97772C24.5415 10.0145 24.9873 10.3636 25.3866 10.7535L26.1128 11.4623L26.8389 10.7535C27.2383 10.3636 27.6841 10.0145 27.8296 9.97772C28.5783 9.78852 29.2272 10.4447 29.0388 11.2006C29.0016 11.3495 28.551 11.9019 28.0373 12.4284L27.1034 13.3853V17.6431V21.901H28.6262H30.1489L30.2119 21.4229C30.3336 20.4991 31.0272 19.2884 32.795 16.9141C33.7735 15.6 34.4409 14.3231 34.7498 13.174C35.0583 12.0261 35.0572 9.82492 34.7472 8.68583C33.8832 5.51001 31.46 3.07334 28.3417 2.24492C27.2038 1.94252 25.4369 1.89654 24.3296 2.1403ZM9.28267 10.0718C8.61874 10.4422 8.64053 11.4971 9.31853 11.8081C9.66377 11.9665 11.8517 11.9665 12.197 11.8081C12.4809 11.6778 12.739 11.2596 12.739 10.9299C12.739 10.6002 12.4809 10.182 12.197 10.0517C11.8302 9.88347 9.59254 9.89883 9.28267 10.0718ZM39.9928 10.0718C39.3288 10.4422 39.3506 11.4971 40.0286 11.8081C40.3739 11.9665 42.5618 11.9665 42.907 11.8081C43.191 11.6778 43.4491 11.2596 43.4491 10.9299C43.4491 10.6002 43.191 10.182 42.907 10.0517C42.5403 9.88347 40.3026 9.89883 39.9928 10.0718ZM12.2652 17.8272C11.5683 18.2416 11.1978 18.5278 11.0924 18.7329C10.7629 19.3744 11.209 20.1057 11.93 20.1057C12.3156 20.1057 13.8605 19.2907 14.3488 18.8296C14.7267 18.4728 14.7294 17.8864 14.3551 17.4931C13.918 17.0338 13.4822 17.1035 12.2652 17.8272ZM37.8654 17.4762C37.4932 17.851 37.4983 18.4723 37.8767 18.8296C38.3716 19.2967 39.9098 20.1057 40.3034 20.1057C41.0475 20.1057 41.4899 19.2924 41.0903 18.6595C40.9734 18.4744 40.5193 18.1416 39.8996 17.7868C38.7205 17.1118 38.2924 17.0465 37.8654 17.4762ZM22.1502 24.8931V25.8904H26.1128H30.0754V24.8931V23.8957H26.1128H22.1502V24.8931ZM22.1502 28.1619C22.1502 28.3731 22.3211 28.6097 22.8708 29.1593L23.5913 29.8799H26.1128H28.6343L29.3548 29.1593C29.9045 28.6097 30.0754 28.3731 30.0754 28.1619V27.8852H26.1128H22.1502V28.1619ZM16.8007 34.1144C16.719 34.1344 16.3178 34.2055 15.9091 34.2725C14.5479 34.4957 13.6597 34.8074 10.9717 36.0055C10.064 36.4099 8.92465 36.8813 8.43982 37.053C7.16001 37.506 5.32077 37.8519 3.71106 37.9423L2.30979 38.021L2.02637 38.3405L1.74285 38.66V40.3338V42.0077L1.39513 42.1343C0.788059 42.3553 0.752197 42.5314 0.752197 45.2893C0.752197 47.9545 0.791526 48.1809 1.29428 48.4115C1.49033 48.5015 4.07681 48.5307 11.8427 48.5307H22.1314L22.3869 48.9697C22.9382 49.9167 24.1899 50.7328 25.416 50.9444C27.0915 51.2337 29.0251 50.3673 29.8442 48.9604L30.0942 48.5307H40.3829C47.9668 48.5307 50.7377 48.5004 50.9233 48.4152C51.0618 48.3517 51.2645 48.1471 51.3737 47.9607C51.5584 47.6457 51.5724 47.4448 51.5724 45.1281C51.5724 43.7566 51.5344 42.6581 51.4878 42.6871C51.4414 42.716 51.3549 42.6328 51.2958 42.5021C51.2365 42.3714 51.0298 42.2069 50.8355 42.1362L50.4827 42.0077V40.3338V38.66L50.1992 38.3405L49.9158 38.021L48.5145 37.9423C46.9048 37.8519 45.0656 37.506 43.7858 37.053C43.3009 36.8813 42.1616 36.4099 41.2539 36.0055C37.6367 34.3934 36.6857 34.1345 34.3847 34.1355C33.1715 34.136 32.7533 34.1758 32.1062 34.3524C31.0974 34.6276 29.7037 35.305 28.9229 35.8996C28.2564 36.4071 26.8013 37.9052 26.41 38.4868C26.2738 38.6893 26.14 38.8548 26.1128 38.8548C26.0855 38.8548 25.9518 38.6893 25.8156 38.4868C25.4243 37.9052 23.9692 36.4071 23.3027 35.8996C22.51 35.296 21.1137 34.6214 20.1194 34.3615C19.3946 34.1721 17.2273 34.0108 16.8007 34.1144ZM16.4211 36.1718C15.4271 36.3259 14.0233 36.8197 12.0391 37.7131C9.02956 39.0683 7.22271 39.6084 4.83862 39.8657L3.72414 39.9859V41.0168V42.0478L13.6059 42.0536C22.772 42.0589 23.5342 42.0721 24.1315 42.2373C24.4856 42.3352 24.8534 42.4496 24.9488 42.4915C25.1056 42.5606 25.1221 42.493 25.1225 41.7842L25.123 41.0006L24.5529 40.1538C23.2174 38.17 21.4934 36.8027 19.7169 36.3181C18.9869 36.119 17.2569 36.0423 16.4211 36.1718ZM33.3941 36.1349C31.2175 36.4379 29.2423 37.8258 27.6727 40.1547L27.1025 41.0006L27.103 41.7842C27.1034 42.493 27.12 42.5606 27.2768 42.4915C27.3721 42.4496 27.7399 42.3352 28.0941 42.2373C28.6913 42.0721 29.4536 42.0589 38.6197 42.0536L48.5014 42.0478V41.0168V39.9859L47.387 39.8657C45.0029 39.6084 43.196 39.0683 40.1864 37.7131C38.0864 36.7675 36.8024 36.3274 35.6902 36.1719C34.9352 36.0664 33.9948 36.0512 33.3941 36.1349ZM0.79539 45.2893C0.79539 46.7155 0.809358 47.2851 0.826298 46.555C0.843238 45.8249 0.843139 44.658 0.826199 43.9619C0.80916 43.2657 0.79529 43.863 0.79539 45.2893ZM2.73349 45.2871V46.536L12.8629 46.5375C20.8187 46.5386 23.0453 46.5659 23.2399 46.6648C23.3872 46.7396 23.6163 47.0521 23.8052 47.4363C24.4575 48.7621 25.6511 49.3115 26.9277 48.8737C27.5657 48.6548 28.0507 48.1878 28.4204 47.4363C28.6093 47.0521 28.8384 46.7396 28.9857 46.6648C29.1802 46.5659 31.4069 46.5386 39.3627 46.5375L49.4921 46.536V45.2871V44.0382L39.016 44.0653L28.5399 44.0924L28.0622 44.3312C27.7994 44.4625 27.465 44.7288 27.3192 44.923C26.7419 45.6913 26.5487 45.8378 26.1128 45.8378C25.6769 45.8378 25.4836 45.6913 24.9064 44.923C24.7606 44.7288 24.4262 44.4625 24.1634 44.3312L23.6857 44.0924L13.2096 44.0653L2.73349 44.0382V45.2871Z" fill="#002952"/>
</svg>
