<svg width="40" height="51" viewBox="0 0 40 51" fill="none" xmlns="http://www.w3.org/2000/svg">
<path fill-rule="evenodd" clip-rule="evenodd" d="M15.2023 0.645672C14.6697 0.912104 14.2387 1.24746 13.5826 1.90605C12.4008 3.0923 12.2504 3.165 10.6313 3.33314C8.40189 3.5647 7.42426 4.38817 6.61966 6.71234C6.41022 7.31739 6.13461 7.95875 6.00736 8.13749C5.88011 8.31623 5.33542 8.74846 4.79684 9.0981C3.68788 9.81806 2.9362 10.5677 2.61644 11.2727C2.38927 11.7736 2.34624 12.6485 2.43953 14.8636C2.47267 15.6494 2.44963 15.7818 2.19309 16.2831C2.03749 16.5872 1.75423 17.0708 1.56366 17.3577C0.520262 18.9293 0.506294 20.5858 1.52288 22.205C2.50061 23.7621 2.54721 23.9707 2.39416 26.1039C2.32238 27.1046 2.33675 27.4062 2.48236 27.9438C2.73278 28.8692 3.34202 29.5901 4.56396 30.4074C5.10682 30.7705 5.64947 31.1532 5.76968 31.2578C6.05182 31.5031 6.52391 32.4348 6.54584 32.7894C6.55777 32.9827 5.72961 34.503 3.75304 37.9162C2.20767 40.5849 0.89029 42.9204 0.825543 43.1062C0.430024 44.2408 1.15805 45.5211 2.3856 45.8498C2.71229 45.9372 3.17439 45.9001 4.81938 45.6543C5.93619 45.4874 6.88528 45.3509 6.92841 45.3509C6.97164 45.3509 7.35584 46.2363 7.78225 47.3185C8.61143 49.4228 8.83911 49.7693 9.60089 50.087C10.466 50.4478 11.5898 50.1561 12.1114 49.4354C12.2606 49.2294 13.6674 46.8291 15.2377 44.1017L18.0927 39.1427L18.8574 38.8564C19.8925 38.469 20.679 38.4693 21.7124 38.8575L22.4771 39.1447L25.4851 44.3599C28.8456 50.1864 28.804 50.1313 29.9055 50.2226C30.6033 50.2805 31.115 50.113 31.612 49.664C31.9455 49.3626 32.1155 49.0239 32.7826 47.3312C33.2117 46.242 33.6152 45.3511 33.679 45.3513C33.7428 45.3515 34.2081 45.4176 34.7128 45.4984C37.3066 45.913 37.7718 45.9603 38.1815 45.8506C38.8221 45.679 39.3184 45.2802 39.6038 44.7076C39.9151 44.0827 39.9314 43.5253 39.656 42.9182C39.545 42.6738 38.2166 40.3293 36.7038 37.7082C33.6651 32.443 33.8462 32.8906 34.3519 31.8995C34.6172 31.3795 34.8843 31.14 36.1234 30.3111C37.869 29.1434 38.3249 28.2023 38.1735 26.0796C38.0231 23.9729 38.0714 23.7586 39.0469 22.205C40.0635 20.5858 40.0495 18.9293 39.0061 17.3577C38.8156 17.0708 38.5323 16.5872 38.3767 16.2831C38.1202 15.7818 38.0971 15.6494 38.1303 14.8636C38.2236 12.6485 38.1805 11.7736 37.9534 11.2727C37.636 10.5731 36.8886 9.82673 35.7628 9.08525C35.2186 8.72695 34.6738 8.2939 34.5521 8.12311C34.4305 7.95232 34.1596 7.31739 33.9501 6.71234C33.1455 4.38817 32.1679 3.5647 29.9385 3.33314C28.3194 3.165 28.169 3.0923 26.9872 1.90605C25.822 0.73642 24.9694 0.279824 23.9674 0.288593C23.2926 0.294405 22.4606 0.48722 21.4065 0.881821C20.6882 1.1507 19.8816 1.1507 19.1633 0.881821C18.1092 0.48722 17.2772 0.294405 16.6024 0.288593C16.0265 0.283495 15.8218 0.335701 15.2023 0.645672ZM16.1044 2.59584C15.9642 2.69118 15.4594 3.14329 14.9828 3.60049C13.5654 4.96008 13.0867 5.19827 11.2918 5.43717C9.44498 5.68291 9.20353 5.86644 8.67587 7.42639C8.05858 9.25125 7.61299 9.84509 6.11871 10.8336C5.58217 11.1886 5.00638 11.6233 4.83906 11.7996C4.50156 12.1555 4.52093 11.9121 4.59567 14.8636C4.62565 16.046 4.60882 16.1842 4.36197 16.7759C4.21565 17.1267 3.89823 17.717 3.65668 18.0878C3.41523 18.4585 3.13911 18.9935 3.04326 19.2767C2.82047 19.9348 2.93579 20.3629 3.65026 21.5289C4.53704 22.9763 4.62707 23.2843 4.59302 24.7541C4.52287 27.7722 4.49268 27.4551 4.89014 27.8718C5.0854 28.0767 5.61225 28.484 6.06089 28.7772C7.54488 29.7466 8.02901 30.3688 8.62009 32.0663C8.80761 32.6048 9.07475 33.2172 9.21373 33.4273C9.51758 33.8862 9.99814 34.0635 11.3924 34.2308C11.9132 34.2933 12.5898 34.4381 12.8957 34.5525C13.569 34.8045 14.5464 35.5217 15.044 36.129C15.5369 36.7305 16.2534 37.1937 16.691 37.1937C16.8823 37.1937 17.5282 37.0217 18.1265 36.8114C19.1179 36.4628 19.3091 36.429 20.2849 36.429C21.2607 36.429 21.4519 36.4628 22.4433 36.8114C23.0416 37.0217 23.689 37.1937 23.8821 37.1937C24.3351 37.1937 24.8 36.8741 25.7795 35.8888C26.9055 34.7562 27.7697 34.3569 29.4617 34.1874C31.0599 34.0272 31.3546 33.775 31.9536 32.0552C32.558 30.3191 33.0278 29.7272 34.6109 28.706C35.0034 28.4528 35.4844 28.0778 35.6797 27.8726C36.0771 27.455 36.0483 27.7589 35.9756 24.7541C35.9467 23.5599 35.9622 23.4381 36.2218 22.8226C36.3742 22.4612 36.6909 21.8708 36.9256 21.5107C37.8053 20.1605 37.836 19.5872 37.092 18.4033C35.9953 16.6586 35.7684 15.7488 35.982 13.9531C36.2002 12.1183 36.1075 11.9295 34.4511 10.8336C32.9568 9.84509 32.5112 9.25125 31.8939 7.42639C31.3759 5.89499 31.0917 5.65997 29.5394 5.47949C27.6294 5.25751 27.0264 4.97456 25.6407 3.65025C25.1345 3.16653 24.5883 2.68781 24.4268 2.58636C24.0523 2.35113 23.647 2.40965 22.2222 2.90428C20.7166 3.42695 19.8497 3.42654 18.3476 2.90234C17.0133 2.43667 16.4516 2.35989 16.1044 2.59584ZM18.0862 6.96735C15.4847 7.40467 12.9568 8.72154 11.0571 10.6291C9.22698 12.4667 8.04512 14.6747 7.4783 17.3148C7.2189 18.523 7.21493 21.1098 7.47065 22.3069C8.60612 27.6242 12.4869 31.5115 17.7629 32.6169C19.1138 32.8999 21.2518 32.9224 22.5662 32.6675C27.0462 31.7987 30.7109 28.833 32.361 24.7408C34.3353 19.8448 33.1971 14.2821 29.4625 10.5739C27.5279 8.65302 24.7962 7.28191 22.178 6.91769C21.1293 6.77188 19.1028 6.79646 18.0862 6.96735ZM18.7192 9.05456C17.7592 9.20628 16.6244 9.55275 15.739 9.96459C10.7248 12.2968 8.25578 17.9351 9.9547 23.1736C11.0952 26.69 13.9135 29.356 17.5319 30.3416C18.397 30.5773 18.6912 30.6059 20.2849 30.6099C21.9127 30.6139 22.1543 30.5905 23.0379 30.3435C26.8122 29.2884 29.689 26.4685 30.7274 22.8058C32.397 16.916 28.8905 10.8181 22.957 9.29305C21.8433 9.00674 19.7625 8.88968 18.7192 9.05456ZM24.1595 15.6043C24.0031 15.6816 23.1735 16.8213 22.0118 18.555L20.119 21.3796L18.9528 20.2047C17.6448 18.8869 17.3575 18.6908 16.8682 18.7827C16.3343 18.8828 16.0024 19.2902 16.0024 19.8452V20.3127L17.9172 22.2275C19.7774 24.0877 19.8439 24.1423 20.2486 24.1423C20.5031 24.1423 20.7609 24.0672 20.9108 23.9492C21.0458 23.8429 22.1761 22.2249 23.4226 20.3534C25.9867 16.5038 25.9979 16.4775 25.3423 15.822C24.9676 15.4473 24.6103 15.3815 24.1595 15.6043ZM5.36764 39.4507C4.03497 41.7576 2.96557 43.666 2.99126 43.6917C3.01686 43.7173 4.11786 43.5715 5.43789 43.3674C7.62696 43.0292 7.86362 43.01 8.12944 43.1474C8.28973 43.2303 8.47174 43.3594 8.53383 43.4342C8.59603 43.5091 9.02907 44.5488 9.49617 45.7446C9.96337 46.9406 10.391 47.9114 10.4465 47.9021C10.5431 47.8858 15.4926 39.4008 15.4926 39.2513C15.4926 39.2114 15.2289 39.021 14.9067 38.8282C14.5844 38.6355 13.9482 38.1053 13.493 37.65C13.0377 37.1947 12.4979 36.7428 12.2935 36.6459C12.089 36.5488 11.4978 36.4249 10.9796 36.3705C9.82531 36.2493 8.78517 35.936 8.24976 35.5481C8.02829 35.3877 7.83436 35.2564 7.81886 35.2564C7.80336 35.2564 6.70031 37.1439 5.36764 39.4507ZM32.2747 35.5702C31.7542 35.9616 30.8452 36.2357 29.6118 36.3732C29.0647 36.4342 28.4591 36.5591 28.2659 36.6508C28.0727 36.7424 27.5139 37.2118 27.024 37.6939C26.5342 38.1758 25.8966 38.7079 25.6073 38.8761C25.318 39.0444 25.0804 39.2139 25.0793 39.253C25.0752 39.3967 30.0259 47.8857 30.1233 47.9021C30.1788 47.9114 30.6064 46.9406 31.0736 45.7446C31.5407 44.5488 31.9771 43.505 32.0433 43.4252C32.1096 43.3453 32.3098 43.2189 32.4885 43.1442C32.7749 43.0245 33.0915 43.0516 35.1724 43.3736C36.47 43.5743 37.5526 43.7176 37.5784 43.6919C37.6326 43.6377 32.8056 35.2529 32.7264 35.2633C32.6973 35.2672 32.494 35.4054 32.2747 35.5702Z" fill="#002952"/>
</svg>
