<svg width="72" height="72" viewBox="0 0 72 72" fill="none" xmlns="http://www.w3.org/2000/svg">
<path d="M28 18C28 17.4696 28.2107 16.9609 28.5858 16.5858C28.9609 16.2107 29.4696 16 30 16H46C46.5304 16 47.0391 16.2107 47.4142 16.5858C47.7893 16.9609 48 17.4696 48 18C48 18.5304 47.7893 19.0391 47.4142 19.4142C47.0391 19.7893 46.5304 20 46 20H30C29.4696 20 28.9609 19.7893 28.5858 19.4142C28.2107 19.0391 28 18.5304 28 18ZM30 24C29.4696 24 28.9609 24.2107 28.5858 24.5858C28.2107 24.9609 28 25.4696 28 26C28 26.5304 28.2107 27.0391 28.5858 27.4142C28.9609 27.7893 29.4696 28 30 28H46C46.5304 28 47.0391 27.7893 47.4142 27.4142C47.7893 27.0391 48 26.5304 48 26C48 25.4696 47.7893 24.9609 47.4142 24.5858C47.0391 24.2107 46.5304 24 46 24H30ZM28 44C28 43.4696 28.2107 42.9609 28.5858 42.5858C28.9609 42.2107 29.4696 42 30 42H46C46.5304 42 47.0391 42.2107 47.4142 42.5858C47.7893 42.9609 48 43.4696 48 44C48 44.5304 47.7893 45.0391 47.4142 45.4142C47.0391 45.7893 46.5304 46 46 46H30C29.4696 46 28.9609 45.7893 28.5858 45.4142C28.2107 45.0391 28 44.5304 28 44ZM30 50C29.4696 50 28.9609 50.2107 28.5858 50.5858C28.2107 50.9609 28 51.4696 28 52C28 52.5304 28.2107 53.0391 28.5858 53.4142C28.9609 53.7893 29.4696 54 30 54H46C46.5304 54 47.0391 53.7893 47.4142 53.4142C47.7893 53.0391 48 52.5304 48 52C48 51.4696 47.7893 50.9609 47.4142 50.5858C47.0391 50.2107 46.5304 50 46 50H30Z" fill="#CF0000"/>
<path fill-rule="evenodd" clip-rule="evenodd" d="M8 42C8 41.4696 8.21071 40.9609 8.58579 40.5858C8.96086 40.2107 9.46957 40 10 40H20C20.5304 40 21.0391 40.2107 21.4142 40.5858C21.7893 40.9609 22 41.4696 22 42V52C22 52.5304 21.7893 53.0391 21.4142 53.4142C21.0391 53.7893 20.5304 54 20 54H10C9.46957 54 8.96086 53.7893 8.58579 53.4142C8.21071 53.0391 8 52.5304 8 52V42ZM12 44V50H18V44H12Z" fill="#CF0000"/>
<path d="M23.4148 19.414C23.7791 19.0368 23.9807 18.5316 23.9762 18.0072C23.9716 17.4828 23.7613 16.9812 23.3905 16.6104C23.0196 16.2396 22.518 16.0292 21.9936 16.0247C21.4692 16.0201 20.964 16.2217 20.5868 16.586L14.0008 23.172L11.4148 20.586C11.0376 20.2217 10.5324 20.0201 10.008 20.0247C9.48362 20.0292 8.98199 20.2396 8.61118 20.6104C8.24036 20.9812 8.03002 21.4828 8.02547 22.0072C8.02091 22.5316 8.2225 23.0368 8.58681 23.414L14.0008 28.828L23.4148 19.414Z" fill="#CF0000"/>
<path fill-rule="evenodd" clip-rule="evenodd" d="M8 0C5.87827 0 3.84344 0.842854 2.34315 2.34315C0.842854 3.84344 0 5.87827 0 8V64C0 66.1217 0.842854 68.1566 2.34315 69.6569C3.84344 71.1571 5.87827 72 8 72H48C50.1217 72 52.1566 71.1571 53.6569 69.6569C55.1571 68.1566 56 66.1217 56 64V8C56 5.87827 55.1571 3.84344 53.6569 2.34315C52.1566 0.842854 50.1217 0 48 0H8ZM4 8C4 6.93913 4.42143 5.92172 5.17157 5.17157C5.92172 4.42143 6.93913 4 8 4H48C49.0609 4 50.0783 4.42143 50.8284 5.17157C51.5786 5.92172 52 6.93913 52 8V64C52 65.0609 51.5786 66.0783 50.8284 66.8284C50.0783 67.5786 49.0609 68 48 68H8C6.93913 68 5.92172 67.5786 5.17157 66.8284C4.42143 66.0783 4 65.0609 4 64V8ZM60 20C60 18.4087 60.6321 16.8826 61.7574 15.7574C62.8826 14.6321 64.4087 14 66 14C67.5913 14 69.1174 14.6321 70.2426 15.7574C71.3679 16.8826 72 18.4087 72 20V60.606L66 69.606L60 60.606V20ZM66 18C65.4696 18 64.9609 18.2107 64.5858 18.5858C64.2107 18.9609 64 19.4696 64 20V24H68V20C68 19.4696 67.7893 18.9609 67.4142 18.5858C67.0391 18.2107 66.5304 18 66 18ZM66 62.394L64 59.394V28H68V59.394L66 62.394Z" fill="#CF0000"/>
</svg>
