<svg width="20" height="20" viewBox="0 0 20 20" fill="none" xmlns="http://www.w3.org/2000/svg">
<g clip-path="url(#clip0_605_3820)">
<path fill-rule="evenodd" clip-rule="evenodd" d="M4 10C4 10 4.07024 10 4.19526 10C4.32029 10 4.48986 10 4.66667 10H15.3333C15.5101 10 15.6797 10 15.8047 10C15.9298 10 16 10 16 10C16 10 15.9298 10 15.8047 10C15.6797 10 15.5101 10 15.3333 10H4.66667C4.48986 10 4.32029 10 4.19526 10C4.07024 10 4 10 4 10Z" fill="#606060" stroke="#606060" stroke-width="1.5"/>
<path fill-rule="evenodd" clip-rule="evenodd" d="M10 17.6154C14.2058 17.6154 17.6154 14.2058 17.6154 10C17.6154 5.79423 14.2058 2.38462 10 2.38462C5.79423 2.38462 2.38462 5.79423 2.38462 10C2.38462 14.2058 5.79423 17.6154 10 17.6154ZM10 19C14.9708 19 19 14.9708 19 10C19 5.02923 14.9708 1 10 1C5.02923 1 1 5.02923 1 10C1 14.9708 5.02923 19 10 19Z" fill="#606060" stroke="#606060" stroke-width="0.5"/>
</g>
<defs>
<clipPath id="clip0_605_3820">
<rect width="20" height="20" fill="white"/>
</clipPath>
</defs>
</svg>
