<svg width="20" height="20" viewBox="0 0 20 20" fill="none" xmlns="http://www.w3.org/2000/svg">
<g clip-path="url(#clip0_605_3800)">
<path d="M18.3337 9.99935V14.9993C18.3337 16.8403 16.8413 18.3327 15.0003 18.3327H5.00033C3.15938 18.3327 1.66699 16.8403 1.66699 14.9993V4.99935C1.66699 3.1584 3.15938 1.66602 5.00033 1.66602H10.0003M13.0723 3.35164C13.0723 3.35164 13.0723 4.54355 14.2642 5.73547C15.4561 6.92738 16.648 6.92738 16.648 6.92738M7.62922 13.324L10.1322 12.9664C10.4933 12.9148 10.8279 12.7475 11.0858 12.4896L17.84 5.73547C18.4982 5.07719 18.4982 4.00991 17.84 3.35164L16.648 2.15972C15.9898 1.50145 14.9225 1.50145 14.2642 2.15972L7.51003 8.9139C7.25213 9.1718 7.08484 9.50638 7.03326 9.86743L6.67569 12.3705C6.59623 12.9267 7.07299 13.4034 7.62922 13.324Z" stroke="#606060" stroke-width="1.5" stroke-linecap="round"/>
</g>
<defs>
<clipPath id="clip0_605_3800">
<rect width="20" height="20" fill="white"/>
</clipPath>
</defs>
</svg>
