<svg width="53" height="52" viewBox="0 0 53 52" fill="none" xmlns="http://www.w3.org/2000/svg">
<path fill-rule="evenodd" clip-rule="evenodd" d="M30.2522 0.405862C29.8538 0.598463 29.7875 0.971117 29.8228 2.81987C29.8548 4.49779 29.8638 4.56013 30.1007 4.75179C30.4632 5.0449 30.9857 5.01067 31.2485 4.6765C31.4473 4.42384 31.4635 4.26723 31.4635 2.5975C31.4635 0.81855 31.4598 0.787954 31.2089 0.537167C30.94 0.26823 30.6259 0.225187 30.2522 0.405862ZM20.3867 4.53783C20.0782 4.82512 19.9972 5.20991 20.1851 5.49503C20.4994 5.97192 22.5025 7.94772 22.7772 8.05175C23.128 8.18471 23.4968 8.06108 23.7261 7.73365C24.0705 7.24203 23.966 7.05493 22.5654 5.65423C21.4514 4.54032 21.1884 4.32749 20.9255 4.32749C20.7533 4.32749 20.5108 4.42208 20.3867 4.53783ZM38.8156 5.5361C38.1426 6.20082 37.5486 6.86917 37.4955 7.02132C37.2722 7.66198 37.9139 8.31073 38.5218 8.05901C38.675 7.99553 39.3431 7.39398 40.0066 6.72231C41.0405 5.67549 41.2128 5.45354 41.2128 5.16884C41.2128 4.72452 40.8158 4.32749 40.3715 4.32749C40.0868 4.32749 39.8646 4.50007 38.8156 5.5361ZM29.8408 6.56746C29.2124 6.87736 29.0548 7.17016 28.3494 9.33752L27.6677 11.4321L25.3391 11.4839C22.69 11.543 22.4986 11.5972 22.0354 12.4214C21.7301 12.9648 21.76 13.8697 22.0989 14.3458C22.2192 14.5147 23.092 15.211 24.0384 15.8929C24.9847 16.575 25.7591 17.1819 25.7591 17.2417C25.7591 17.3015 25.479 18.1876 25.1368 19.2108C24.4662 21.2156 24.3837 21.808 24.6862 22.4455C25.0187 23.1461 26.1273 23.5925 26.8816 23.3295C27.0507 23.2706 27.9659 22.6563 28.9155 21.9644L30.6419 20.7064L30.9749 20.941C31.158 21.07 31.8924 21.602 32.6068 22.1231C34.3007 23.3587 34.475 23.4454 35.1549 23.3889C36.0721 23.3129 36.8516 22.4898 36.8525 21.5963C36.8527 21.4252 36.5523 20.3791 36.1851 19.2716C35.8177 18.1641 35.5389 17.2229 35.5655 17.18C35.592 17.137 36.3484 16.5667 37.2465 15.9125C39.066 14.5872 39.1639 14.4969 39.4029 13.9251C39.7432 13.1108 39.3542 12.1391 38.5193 11.7173C38.0834 11.4971 37.933 11.4839 35.8527 11.4839H33.6479L32.97 9.37756C32.3932 7.58523 32.242 7.22378 31.9556 6.95266C31.7705 6.77748 31.5171 6.58187 31.3925 6.51799C31.0685 6.35183 30.2232 6.3788 29.8408 6.56746ZM30.4291 8.31322C30.3764 8.45178 30.0924 9.32694 29.7979 10.2579C29.1789 12.215 28.9561 12.6184 28.3261 12.9234C27.9068 13.1264 27.7015 13.1434 25.6744 13.1434C23.8519 13.1434 23.4773 13.1684 23.4773 13.2897C23.4773 13.3703 24.2124 13.9721 25.1108 14.6271C26.8715 15.9108 27.1378 16.1497 27.3079 16.5987C27.5047 17.1181 27.4296 17.5273 26.7552 19.6124C26.2435 21.1938 26.1238 21.6752 26.232 21.7167C26.3091 21.7464 27.1154 21.2296 28.0236 20.5685C29.9077 19.197 30.2809 19.0059 30.8876 19.1017C31.371 19.1781 31.5248 19.2732 33.47 20.6992C34.2598 21.2781 34.9455 21.7519 34.9937 21.7519C35.2063 21.7519 35.1457 21.4659 34.5107 19.4708C33.5603 16.4852 33.5337 16.5652 36.0933 14.7072C37.0551 14.009 37.8421 13.3832 37.8421 13.3165C37.8421 13.2293 37.2027 13.1807 35.5603 13.1434C32.3539 13.0705 32.4374 13.1326 31.458 10.0911C30.8015 8.05237 30.6366 7.76756 30.4291 8.31322ZM15.5331 15.4152C14.9676 15.672 14.7642 16.0346 14.2373 17.7245L13.7953 19.1421L12.0763 19.1765C10.5822 19.2064 10.311 19.238 10.005 19.4183C9.51176 19.7088 9.25402 20.0954 9.19304 20.6363C9.10591 21.4091 9.35722 21.7729 10.6006 22.675C11.1983 23.1085 11.8071 23.5634 11.9536 23.6858L12.2199 23.9085L11.7293 25.4199C11.1795 27.1139 11.1461 27.4208 11.4532 27.9608C11.7961 28.5639 12.1289 28.7528 12.8485 28.7528C13.4719 28.7528 13.4753 28.7511 14.7925 27.7934C15.5182 27.2658 16.1593 26.834 16.2171 26.834C16.275 26.834 16.9101 27.2613 17.6284 27.7836C18.7537 28.6018 19.0036 28.74 19.4328 28.7812C19.8216 28.8186 20.0243 28.7766 20.3559 28.5903C20.8058 28.3375 21.1968 27.7084 21.1941 27.242C21.1933 27.1031 20.9675 26.2856 20.6924 25.4253L20.1923 23.8612L21.4824 22.9361C22.192 22.4274 22.8728 21.8712 22.9953 21.7C23.3146 21.2539 23.3052 20.3703 22.9765 19.9094C22.5351 19.2906 22.2676 19.2159 20.3546 19.177L18.6321 19.142L18.1913 17.7244C17.6636 16.0275 17.4878 15.7139 16.9065 15.4325C16.3628 15.1693 16.0823 15.1658 15.5331 15.4152ZM44.3525 15.4214C43.7788 15.6818 43.6146 15.9746 43.0745 17.7004L42.6232 19.1422L40.9068 19.1765C39.4154 19.2064 39.1442 19.238 38.8383 19.4183C38.347 19.7076 38.0872 20.095 38.0272 20.6282C37.9375 21.4243 38.1591 21.7499 39.4079 22.656C40.0198 23.1 40.6403 23.5634 40.7868 23.6858L41.0531 23.9085L40.5625 25.4199C40.0318 27.0553 39.9858 27.4358 40.2578 27.9407C40.5731 28.5258 40.9712 28.7528 41.6825 28.7528H42.3127L43.6204 27.7934C44.3397 27.2658 44.9793 26.834 45.0419 26.834C45.1043 26.834 45.7415 27.2602 46.4579 27.7809C47.5168 28.5509 47.8459 28.7375 48.2186 28.7795C48.7896 28.8439 49.2134 28.6744 49.6092 28.2236C50.0267 27.7482 50.1027 27.2571 49.8708 26.534C49.7682 26.2142 49.5355 25.4831 49.3537 24.9095L49.0231 23.8668L50.3619 22.8967C51.3738 22.1636 51.7525 21.8249 51.9133 21.5099C52.2992 20.7534 51.9974 19.8048 51.2392 19.3914C50.974 19.2467 50.5773 19.2052 49.1893 19.177L47.4682 19.142L47.0208 17.7244C46.479 16.0077 46.3124 15.7098 45.7398 15.4325C45.1931 15.168 44.9157 15.1657 44.3525 15.4214ZM44.5452 18.5199C43.8183 20.7914 43.7822 20.8184 41.4773 20.8184C40.5902 20.8184 39.8656 20.8535 39.8669 20.8962C39.8682 20.939 40.3624 21.3241 40.9651 21.7519C42.9371 23.1517 42.9758 23.2575 42.3045 25.4197C42.0463 26.2512 41.8351 26.9568 41.8351 26.9877C41.8351 27.0186 42.3836 26.6456 43.0538 26.1588C44.9751 24.7635 45.1354 24.763 47.021 26.1468C47.677 26.6283 48.229 27.0074 48.2475 26.9894C48.2661 26.9713 48.0617 26.2805 47.7931 25.4541C47.0926 23.2984 47.1411 23.1646 49.1314 21.7519C49.7342 21.3241 50.2293 20.939 50.2317 20.8962C50.2342 20.8535 49.5105 20.8184 48.6234 20.8184C46.3209 20.8184 46.2398 20.7597 45.5642 18.6061C45.3285 17.8548 45.1049 17.2093 45.0672 17.1715C45.0294 17.1338 44.7945 17.7405 44.5452 18.5199ZM15.7076 18.5626C14.9746 20.7925 14.9395 20.8184 12.6441 20.8184C11.757 20.8184 11.0323 20.8535 11.0337 20.8962C11.0349 20.939 11.5291 21.3241 12.1318 21.7519C14.1144 23.1592 14.1651 23.3005 13.4663 25.4706C13.2029 26.2885 13.0023 26.9722 13.0206 26.99C13.0388 27.0077 13.5905 26.6283 14.2465 26.1468C16.1306 24.764 16.3036 24.764 18.1878 26.1468C18.8438 26.6283 19.3957 27.0074 19.4143 26.9894C19.4329 26.9713 19.2285 26.2805 18.9599 25.4541C18.2594 23.2984 18.3079 23.1646 20.2982 21.7519C20.901 21.3241 21.3961 20.939 21.3985 20.8962C21.401 20.8535 20.6773 20.8184 19.7902 20.8184C17.4847 20.8184 17.4354 20.7826 16.7348 18.5973C16.4863 17.8224 16.2552 17.1884 16.2212 17.1884C16.1872 17.1884 15.9561 17.8068 15.7076 18.5626ZM16.1926 32.0174C14.8913 32.2519 14.1856 32.5912 10.228 34.8853C8.61689 35.8192 7.25914 36.5834 7.2108 36.5834C7.16258 36.5834 6.99839 36.3543 6.84603 36.0744C6.32994 35.1261 5.45706 34.6152 4.61032 34.7658C4.40548 34.8022 3.5745 35.2095 2.76364 35.6709C1.10273 36.6158 0.798628 36.9289 0.69543 37.8001C0.645128 38.225 0.681843 38.4269 0.891869 38.8791C1.37374 39.9173 7.61322 50.8378 7.8887 51.1254C8.28697 51.5411 8.95563 51.7686 9.54267 51.6881C10.0095 51.6241 11.9595 50.6016 12.7695 49.9961C13.636 49.3483 13.7504 48.2305 13.0689 47.0695C12.8548 46.7046 12.7171 46.3707 12.763 46.3272C12.8088 46.2838 13.0797 46.1123 13.3649 45.9463L13.8835 45.6442L19.2249 47.0791C22.7286 48.0203 24.8344 48.5359 25.3458 48.5777C26.3755 48.662 27.443 48.4727 28.3267 48.0492C28.7179 47.8617 32.349 45.6716 36.3959 43.1823C41.8102 39.852 43.8683 38.5328 44.1868 38.189C44.7402 37.5915 44.9968 36.8593 44.9863 35.908C44.9615 33.6761 43.0171 32.3452 40.5772 32.8902C39.3665 33.1606 38.5251 33.5859 34.0564 36.1861C29.7997 38.6629 29.0649 39.0726 28.8793 39.0726C28.8185 39.0726 28.8381 38.8967 28.927 38.6446C29.3558 37.4296 28.809 35.902 27.6769 35.1523C27.3497 34.9355 26.7695 34.7383 25.6753 34.4722C24.0778 34.0836 22.9317 33.7263 19.8472 32.6556C17.9309 31.9904 17.1244 31.8495 16.1926 32.0174ZM16.2625 33.6767C15.4421 33.8497 14.5699 34.2881 11.444 36.0994C9.70529 37.1068 8.21914 37.9722 8.14145 38.0225C8.03131 38.0938 8.42004 38.8584 9.89468 41.4714C10.9368 43.318 11.8032 44.8459 11.8201 44.8668C11.8369 44.8877 12.2242 44.6894 12.6807 44.426C13.1373 44.1627 13.6154 43.9472 13.7431 43.9472C13.8709 43.9472 16.4284 44.6117 19.4264 45.424C24.7048 46.8539 24.9087 46.9004 25.8628 46.8929C26.5217 46.8876 27.0027 46.8266 27.3148 46.7086C27.5715 46.6115 31.2036 44.4251 35.386 41.8497C41.0757 38.3463 43.0283 37.0942 43.1406 36.8771C43.7572 35.6848 43.0248 34.4015 41.7314 34.408C40.501 34.4142 39.843 34.728 34.3753 37.9151C32.0123 39.2925 29.8186 40.5229 29.5006 40.6494C29.0066 40.8458 28.7185 40.8798 27.5223 40.8834C26.5605 40.8862 25.8572 40.8303 25.2761 40.7048C24.2828 40.4904 20.3407 39.4284 19.9211 39.2623C19.1206 38.9454 19.3302 37.722 20.1843 37.7257C20.3696 37.7265 21.5248 38.0093 22.7513 38.354C25.2606 39.0594 26.3118 39.21 26.7452 38.926C27.1226 38.6786 27.4178 38.1513 27.4178 37.7242C27.4178 37.3004 27.1234 36.7703 26.7532 36.5277C26.6099 36.4339 26.0967 36.2705 25.6125 36.1648C24.2224 35.861 22.7313 35.4058 20.2082 34.5151C17.7983 33.6644 17.0626 33.5081 16.2625 33.6767ZM3.61609 37.0823C2.93187 37.4689 2.35811 37.8575 2.3411 37.9458C2.29692 38.1752 9.01205 50.0075 9.20963 50.0483C9.29914 50.0667 9.80393 49.8372 10.3314 49.5382C11.5882 48.826 11.861 48.6316 11.861 48.4486C11.861 48.2634 5.24672 36.5624 5.0815 36.4553C4.90985 36.3441 4.96254 36.3215 3.61609 37.0823ZM3.99663 38.1717C3.52523 38.6736 3.8759 39.4874 4.56354 39.4874C4.96441 39.4874 5.3269 39.1111 5.3269 38.695C5.3269 38.0238 4.45713 37.6816 3.99663 38.1717Z" fill="#002952"/>
</svg>
