<svg width="20" height="20" viewBox="0 0 20 20" fill="none" xmlns="http://www.w3.org/2000/svg">
<g clip-path="url(#clip0_573_1292)">
<path d="M19 14.0055L14.0587 19L11.6723 16.5833L12.4707 15.7777L14.0587 17.371L18.2016 13.1999L19 14.0055ZM10.0843 4.4371V9.01989H13.4909V10.1656H8.94874V4.4371H10.0843ZM9.51651 17.0398C9.61114 17.0398 9.70577 17.0368 9.80039 17.0308C9.89502 17.0249 9.98965 17.0189 10.0843 17.0129L11.0956 18.0333C10.8295 18.0811 10.5663 18.1169 10.3061 18.1407C10.0458 18.1646 9.78265 18.1795 9.51651 18.1855C8.73583 18.1855 7.98472 18.084 7.26318 17.8812C6.54165 17.6783 5.86151 17.3889 5.22277 17.0129C4.58403 16.637 4.01035 16.1895 3.50172 15.6703C2.9931 15.1512 2.54953 14.5694 2.17102 13.9249C1.79251 13.2805 1.50567 12.5972 1.3105 11.8752C1.11533 11.1532 1.01183 10.3923 1 9.59274C1 8.80507 1.10054 8.04724 1.30163 7.31924C1.50271 6.59125 1.78955 5.90502 2.16215 5.26057C2.53475 4.61611 2.97831 4.03729 3.49285 3.52412C4.00739 3.01094 4.58403 2.5634 5.22277 2.1815C5.86151 1.7996 6.53869 1.51019 7.25431 1.31328C7.96994 1.11636 8.724 1.01193 9.51651 1C10.2972 1 11.0483 1.10144 11.7698 1.30433C12.4914 1.50721 13.1715 1.79662 13.8103 2.17255C14.449 2.54848 15.0227 2.99602 15.5313 3.51517C16.0399 4.03431 16.4835 4.61611 16.862 5.26057C17.2405 5.90502 17.5274 6.58826 17.7225 7.31029C17.9177 8.03232 18.0212 8.79314 18.033 9.59274C18.033 9.8911 18.0153 10.1924 17.9798 10.4968L16.4894 12.0094C16.7615 11.2158 16.8975 10.4102 16.8975 9.59274C16.8975 8.90651 16.8088 8.24714 16.6313 7.61462C16.4539 6.9821 16.2055 6.39135 15.8862 5.84237C15.5668 5.29339 15.1824 4.78916 14.7329 4.32969C14.2834 3.87021 13.7866 3.48235 13.2425 3.16609C12.6984 2.84983 12.1099 2.5992 11.4771 2.41422C10.8443 2.22924 10.1907 2.13973 9.51651 2.1457C8.83637 2.1457 8.18285 2.23521 7.55594 2.41422C6.92903 2.59324 6.34352 2.84386 5.79941 3.16609C5.2553 3.48831 4.75554 3.87618 4.30015 4.32969C3.84475 4.78319 3.46033 5.28444 3.14687 5.83342C2.83342 6.3824 2.58502 6.97613 2.40168 7.61462C2.21833 8.25311 2.12962 8.91248 2.13553 9.59274C2.13553 10.279 2.22425 10.9383 2.40168 11.5709C2.5791 12.2034 2.8275 12.7941 3.14687 13.3431C3.46624 13.8921 3.85067 14.3963 4.30015 14.8558C4.74963 15.3153 5.24643 15.7031 5.79054 16.0194C6.33465 16.3357 6.92311 16.5863 7.55594 16.7713C8.18876 16.9562 8.84229 17.0457 9.51651 17.0398Z" fill="#606060" stroke="#606060" stroke-width="0.5" stroke-linejoin="round"/>
</g>
<defs>
<clipPath id="clip0_573_1292">
<rect width="20" height="20" fill="white"/>
</clipPath>
</defs>
</svg>
