<svg width="48" height="48" viewBox="0 0 48 48" fill="none" xmlns="http://www.w3.org/2000/svg">
<path d="M2 40V34.4001C2 33.2667 2.292 32.2254 2.876 31.2761C3.46 30.3267 4.23467 29.6014 5.2 29.1001C7.26667 28.0667 9.36667 27.2921 11.5 26.7761C13.6333 26.26 15.8 26.0014 18 26.0001C20.2 25.9987 22.3667 26.2574 24.5 26.7761C26.6333 27.2947 28.7333 28.0694 30.8 29.1001C31.7667 29.6001 32.542 30.3254 33.126 31.2761C33.71 32.2267 34.0013 33.2681 34 34.4001V40H2ZM38 40V34.0001C38 32.5334 37.592 31.1247 36.776 29.7741C35.96 28.4234 34.8013 27.2654 33.3 26.3001C35 26.5001 36.6 26.8421 38.1 27.3261C39.6 27.8101 41 28.4014 42.3 29.1001C43.5 29.7667 44.4167 30.5081 45.05 31.3241C45.6833 32.1401 46 33.0321 46 34.0001V40H38ZM18 24.0001C15.8 24.0001 13.9167 23.2167 12.35 21.6501C10.7833 20.0834 10 18.2001 10 16.0001C10 13.8001 10.7833 11.9167 12.35 10.3501C13.9167 8.78338 15.8 8.00005 18 8.00005C20.2 8.00005 22.0833 8.78338 23.65 10.3501C25.2167 11.9167 26 13.8001 26 16.0001C26 18.2001 25.2167 20.0834 23.65 21.6501C22.0833 23.2167 20.2 24.0001 18 24.0001ZM38 16.0001C38 18.2001 37.2167 20.0834 35.65 21.6501C34.0833 23.2167 32.2 24.0001 30 24.0001C29.6333 24.0001 29.1667 23.9587 28.6 23.8761C28.0333 23.7934 27.5667 23.7014 27.2 23.6001C28.1 22.5334 28.792 21.3501 29.276 20.0501C29.76 18.7501 30.0013 17.4001 30 16.0001C29.9987 14.6001 29.7573 13.2501 29.276 11.9501C28.7947 10.6501 28.1027 9.46672 27.2 8.40005C27.6667 8.23338 28.1333 8.12472 28.6 8.07405C29.0667 8.02338 29.5333 7.99872 30 8.00005C32.2 8.00005 34.0833 8.78338 35.65 10.3501C37.2167 11.9167 38 13.8001 38 16.0001Z" fill="#CF0000"/>
</svg>
