<svg width="48" height="48" viewBox="0 0 48 48" fill="none" xmlns="http://www.w3.org/2000/svg">
<path d="M22 30V26H26V30H22ZM20 12H28V8H20V12ZM8 42C6.9 42 5.95867 41.6087 5.176 40.826C4.39333 40.0433 4.00133 39.1013 4 38V30H18V32C18 32.5667 18.192 33.042 18.576 33.426C18.96 33.81 19.4347 34.0013 20 34H28C28.5667 34 29.042 33.808 29.426 33.424C29.81 33.04 30.0013 32.5653 30 32V30H44V38C44 39.1 43.6087 40.042 42.826 40.826C42.0433 41.61 41.1013 42.0013 40 42H8ZM4 26V16C4 14.9 4.392 13.9587 5.176 13.176C5.96 12.3933 6.90133 12.0013 8 12H16V8C16 6.9 16.392 5.95867 17.176 5.176C17.96 4.39333 18.9013 4.00133 20 4H28C29.1 4 30.042 4.392 30.826 5.176C31.61 5.96 32.0013 6.90133 32 8V12H40C41.1 12 42.042 12.392 42.826 13.176C43.61 13.96 44.0013 14.9013 44 16V26H30V24C30 23.4333 29.808 22.9587 29.424 22.576C29.04 22.1933 28.5653 22.0013 28 22H20C19.4333 22 18.9587 22.192 18.576 22.576C18.1933 22.96 18.0013 23.4347 18 24V26H4Z" fill="#CF0000"/>
</svg>
